<svg data-name="Icon ionic-ios-mail-unread" viewBox="0 0 24 16.615"><g data-name="Icon ionic-ios-mail" fill="#f7fbed"><path data-name="Path 59" d="M23.804 2.036l-6.208 6.323a.112.112 0 000 .162l4.344 4.627a.749.749 0 010 1.062.752.752 0 01-1.062 0L16.551 9.6a.118.118 0 00-.167 0l-1.059 1.073a4.645 4.645 0 01-3.312 1.4 4.738 4.738 0 01-3.381-1.437L7.625 9.6a.118.118 0 00-.167 0l-4.333 4.609a.752.752 0 01-1.062 0 .749.749 0 010-1.062L6.407 8.52a.123.123 0 000-.162L.196 2.036a.114.114 0 00-.2.081v12.652a1.852 1.852 0 001.846 1.846h20.312A1.852 1.852 0 0024 14.769V2.117a.115.115 0 00-.196-.081z"/><path data-name="Path 60" d="M12 10.563a3.137 3.137 0 002.256-.946L23.308.404a1.813 1.813 0 00-1.142-.4H1.84a1.8 1.8 0 00-1.142.4L9.75 9.617a3.137 3.137 0 002.25.946z"/></g></svg>